<?xml version="1.0" encoding="UTF-8"?>
<svg id="Ebene_1" data-name="Ebene 1" xmlns="http://www.w3.org/2000/svg" version="1.1" viewBox="0 0 634 184">
  <defs>
    <style>
      .cls-1 {
        stroke-width: 1.07px;
      }

      .cls-1, .cls-2, .cls-3 {
        fill: #fff;
        stroke: #fff;
      }

      .cls-1, .cls-3 {
        stroke-miterlimit: 4.29;
      }

      .cls-4 {
        fill: #000;
      }

      .cls-4, .cls-5, .cls-6 {
        stroke-width: 0px;
      }

      .cls-2 {
        stroke-width: 1.07px;
      }

      .cls-5 {
        fill: #235b29;
      }

      .cls-3 {
        stroke-width: .93px;
      }

      .cls-7 {
        opacity: .66;
      }

      .cls-6 {
        fill: #629c68;
      }
    </style>
  </defs>
  <g>
    <path id="shape1" class="cls-5" d="M11.19,2.17h164.57c3.87,0,7,3.13,7,7v164.63c0,3.87-3.13,7-7,7H11.19c-3.87,0-7-3.13-7-7V9.17c0-3.87,3.13-7,7-7Z"/>
    <g id="group2">
      <g id="g1">
        <path id="shape264" class="cls-1" d="M131.24,118.92c-2.57-.44-5.71.14-7.5,1.16-1.8,1.02-4.97,6-4.97,6l-.54.57s2.43.14,5.47,1.2c3.02,1.05,6.94-.78,8.67-1.97,1.73-1.2,6.57-6.65,6.57-6.65,0,0-.74.12-2.09.12-1.34-.02-3.02-.02-5.61-.44Z"/>
        <path id="shape267" class="cls-1" d="M91.2,103.34c-2.21.38-4.61,1.7-5.8,3.04-1.19,1.32-2.39,6.26-2.39,6.26l-.27.6s2.01-.56,4.78-.53c2.77.03,5.44-2.57,6.51-4.02,1.08-1.46,3.52-7.22,3.52-7.22,0,0-.57.29-1.65.66-1.1.36-2.48.83-4.69,1.2Z"/>
        <path id="shape270" class="cls-1" d="M41.49,81.23c-2.06-.44-9.33-.18-9.33-.18,0,0,.59.47,1.5,1.43.92.98,2.1,2.2,3.56,4.36,1.47,2.18,4.04,4.06,6.04,4.66,1.98.6,7.77-.54,7.77-.54h.77s-1.58-1.87-2.92-4.8c-1.29-2.93-5.32-4.51-7.39-4.93Z"/>
        <path id="shape273" class="cls-1" d="M84.68,68.89c-1.82.57-3.7,1.96-4.55,3.22-.84,1.26-1.31,5.55-1.31,5.55l-.17.56s1.64-.71,3.97-.99c2.34-.29,4.31-2.77,5.06-4.12.74-1.34,2.15-6.48,2.15-6.48,0,0-.45.32-1.32.74-.89.44-2,.98-3.83,1.53Z"/>
        <path id="shape276" class="cls-1" d="M31.21,117.98c-2.04-2.47-6.36-2.9-8.46-2.75-2.1.14-9.05,2.33-9.05,2.33,0,0,.69.29,1.83.98,1.16.68,2.6,1.56,4.61,3.25,1.98,1.68,4.97,2.81,7.03,2.86,2.07.05,7.35-2.59,7.35-2.59l.74-.23s-1.98-1.38-4.06-3.85Z"/>
        <path id="shape279" class="cls-1" d="M67.88,80.29s-.06.45-.27,1.25c-.23.8-.48,1.79-1.16,3.25-.66,1.46-.83,3.4-.51,4.63.32,1.23,2.77,3.9,2.77,3.9l.24.41s.47-1.41,1.58-3.05c1.11-1.62.65-4.23.21-5.45-.42-1.2-2.86-4.93-2.86-4.93Z"/>
        <path id="shape282" class="cls-1" d="M88.27,127.25c-1.76.59-3.53,1.97-4.31,3.2-.8,1.23-1.14,5.4-1.14,5.4l-.15.51s1.58-.71,3.82-1.05c2.25-.35,4.1-2.78,4.79-4.11.68-1.31,1.91-6.32,1.91-6.32,0,0-.42.32-1.26.75-.84.47-1.89,1.04-3.65,1.61Z"/>
        <path id="shape285" class="cls-1" d="M113.11,80.99c-2.6-.17-5.68.72-7.36,1.93-1.68,1.2-4.34,6.47-4.34,6.47l-.47.62s2.43-.11,5.56.65c3.13.74,6.84-1.47,8.45-2.86,1.61-1.37,5.85-7.27,5.85-7.27,0,0-.72.18-2.04.32-1.35.15-3.04.32-5.64.15Z"/>
        <path id="shape288" class="cls-1" d="M57.3,62.47c-.74.75-1.67,1.71-3.32,2.93-1.65,1.22-3.07,3.31-3.5,4.9-.41,1.58.65,6.12.65,6.12l.03.62s1.43-1.29,3.7-2.42c2.28-1.13,3.4-4.36,3.68-6,.27-1.65-.14-7.39-.14-7.39,0,0-.35.48-1.1,1.23Z"/>
        <path id="shape291" class="cls-1" d="M43.56,104.61c-1.19-.86-5.92-2.8-5.92-2.8,0,0,.24.47.56,1.35.32.9.72,2,1.04,3.82.32,1.79,1.43,3.75,2.52,4.71,1.1.95,5.13,1.88,5.13,1.88l.48.23s-.47-1.64-.47-3.9c-.02-2.26-2.15-4.44-3.34-5.29Z"/>
        <path id="shape294" class="cls-1" d="M49.78,136.33c-2.51-.23-5.14,1.96-6.22,3.2-1.08,1.25-3.7,6.33-3.7,6.33,0,0,.54-.23,1.56-.48,1.01-.26,2.3-.59,4.34-.77,2.04-.18,4.31-1.22,5.5-2.36,1.16-1.13,2.62-5.54,2.62-5.54l.29-.54s-1.86.36-4.39.15Z"/>
        <path id="shape297" class="cls-1" d="M113.14,145.58c-.71-.81-1.59-1.81-2.72-3.58-1.11-1.77-3.11-3.35-4.69-3.88-1.56-.54-6.22.21-6.22.21l-.62-.02s1.2,1.53,2.18,3.91c.98,2.36,4.15,3.75,5.79,4.14,1.62.39,7.44.41,7.44.41,0,0-.44-.39-1.16-1.19Z"/>
        <path id="shape300" class="cls-1" d="M20.73,137.3c-1.58.38-6.55,2.9-6.55,2.9,0,0,.56.14,1.52.51.96.38,2.16.84,3.89,1.87,1.73,1.04,4.13,1.52,5.71,1.29,1.56-.21,5.25-2.89,5.25-2.89l.53-.27s-1.7-.78-3.58-2.39c-1.88-1.59-5.19-1.38-6.76-1.02Z"/>
        <path id="shape303" class="cls-1" d="M132.23,141.03c-1.47-1.14-3.65-1.87-5.14-1.84-1.47.03-5.19,2.09-5.19,2.09l-.53.18s1.49.92,3.04,2.63c1.56,1.71,4.67,1.88,6.16,1.73,1.5-.17,6.42-1.96,6.42-1.96,0,0-.51-.2-1.37-.65-.84-.47-1.91-1.04-3.4-2.2Z"/>
        <path id="shape306" class="cls-1" d="M94.57,75.41s-.2.45-.63,1.22c-.45.77-1.02,1.73-2.12,3.07-1.1,1.32-1.82,3.31-1.83,4.68,0,1.37,1.77,4.83,1.77,4.83l.15.5s.89-1.34,2.51-2.72c1.61-1.38,1.86-4.23,1.74-5.63-.11-1.37-1.59-5.94-1.59-5.94Z"/>
        <path id="shape309" class="cls-1" d="M110.09,113.82c-1.8-.3-4.01.09-5.26.81-1.26.71-3.47,4.2-3.47,4.2l-.38.39s1.7.09,3.82.84c2.13.74,4.87-.56,6.07-1.38,1.22-.84,4.6-4.65,4.6-4.65,0,0-.53.08-1.46.08s-2.13,0-3.92-.29Z"/>
        <path id="shape312" class="cls-1" d="M53.6,101.2c-1.28.39-2.6,1.34-3.19,2.21-.6.86-.95,3.85-.95,3.85l-.12.38s1.16-.48,2.77-.66c1.62-.2,3.02-1.9,3.55-2.83.51-.93,1.53-4.5,1.53-4.5,0,0-.32.23-.93.51s-1.4.66-2.66,1.04Z"/>
        <path id="shape315" class="cls-1" d="M102.79,127.61c-1.28.39-2.6,1.34-3.19,2.21-.6.86-.95,3.85-.95,3.85l-.12.38s1.16-.48,2.77-.66c1.62-.2,3.02-1.9,3.55-2.83.51-.93,1.53-4.5,1.53-4.5,0,0-.32.23-.93.51s-1.38.66-2.66,1.04Z"/>
        <path id="shape318" class="cls-3" d="M40.28,116.73s.04.35.02.95c-.01.62-.04,1.39-.25,2.57s-.01,2.61.4,3.44c.4.84,2.46,2.35,2.46,2.35l.24.26s.09-1.11.56-2.5c.49-1.36-.24-3.19-.72-3.98-.47-.8-2.71-3.08-2.71-3.08h0Z"/>
        <path id="shape321" class="cls-1" d="M58.68,76.45s-.11.36-.41.98c-.3.62-.68,1.38-1.44,2.48-.77,1.08-1.19,2.65-1.13,3.7.08,1.05,1.65,3.61,1.65,3.61l.14.38s.6-1.1,1.76-2.24c1.14-1.16,1.17-3.37,1.01-4.42-.17-1.07-1.58-4.48-1.58-4.48Z"/>
        <path id="shape324" class="cls-1" d="M103.08,68.42s-.12.38-.41.99c-.29.62-.65,1.4-1.38,2.51-.74,1.1-1.14,2.66-1.05,3.72.09,1.05,1.71,3.58,1.71,3.58l.15.36s.57-1.1,1.71-2.27c1.14-1.17,1.11-3.37.93-4.44-.2-1.07-1.67-4.45-1.67-4.45Z"/>
        <path id="shape327" class="cls-1" d="M76.44,96.21s0,.39-.12,1.05c-.11.68-.23,1.52-.65,2.78-.42,1.26-.38,2.89,0,3.88.36.98,2.63,2.96,2.63,2.96l.24.32s.26-1.2,1.02-2.66c.77-1.43.15-3.55-.32-4.51-.47-.95-2.81-3.82-2.81-3.82Z"/>
        <path id="shape330" class="cls-1" d="M69.73,70.13s.08.38.14,1.05c.06.69.11,1.53,0,2.87-.12,1.31.29,2.89.87,3.78.6.87,3.25,2.3,3.25,2.3l.3.24s-.02-1.23.39-2.83c.42-1.58-.66-3.49-1.32-4.33-.68-.83-3.62-3.08-3.62-3.08Z"/>
        <path id="shape333" class="cls-1" d="M69.72,113.35c-1.13-1.17-3.34-1.26-4.39-1.13s-4.51,1.49-4.51,1.49c0,0,.36.12.96.44.6.32,1.37.71,2.43,1.49,1.07.8,2.62,1.26,3.68,1.23,1.05-.05,3.64-1.56,3.64-1.56l.38-.14s-1.07-.65-2.19-1.82Z"/>
        <path id="shape336" class="cls-1" d="M66.65,121.04s-.6.69-1.61,1.32c-.99.65-1.37,2.23-1.41,3.01-.05.78.44,3.46.44,3.46,0,0,.14-.24.45-.63.32-.39.71-.89,1.41-1.55.72-.66,1.28-1.71,1.38-2.48.12-.77-.62-2.84-.62-2.84l-.05-.29Z"/>
        <path id="shape339" class="cls-1" d="M54.17,118.59c-1.04.23-4.37,1.85-4.37,1.85,0,0,.38.09,1.01.36.63.26,1.41.59,2.54,1.28,1.13.71,2.72,1.05,3.76.92,1.04-.14,3.5-1.85,3.5-1.85l.35-.17s-1.11-.54-2.34-1.62c-1.2-1.1-3.4-1.01-4.43-.77Z"/>
        <path id="shape342" class="cls-1" d="M40.55,66.45s.11.38.23,1.04c.11.68.24,1.53.24,2.86s.54,2.87,1.19,3.67c.66.83,3.41,2.02,3.41,2.02l.33.23s-.12-1.23.17-2.84c.29-1.59-.95-3.43-1.7-4.2-.74-.78-3.86-2.77-3.86-2.77Z"/>
        <path id="shape345" class="cls-1" d="M92.09,96.37c-1.32-.2-2.92.11-3.83.62-.92.53-2.51,3.08-2.51,3.08l-.27.29s1.23.06,2.78.59c1.55.54,3.53-.41,4.42-1.02.87-.62,3.31-3.41,3.31-3.41,0,0-.36.06-1.05.06-.66,0-1.53.02-2.84-.2Z"/>
        <path id="shape348" class="cls-1" d="M28.39,100.32s.08.38.14,1.05c.06.69.12,1.53.02,2.87-.11,1.32.32,2.89.9,3.76.59.86,3.25,2.27,3.25,2.27l.3.24s-.02-1.23.39-2.81c.41-1.58-.69-3.5-1.35-4.33-.69-.83-3.64-3.05-3.64-3.05Z"/>
        <path id="shape351" class="cls-1" d="M31.37,129.75c-.96-.47-4.58-1.28-4.58-1.28,0,0,.24.3.56.9.33.59.77,1.35,1.22,2.6s1.47,2.51,2.36,3.07c.92.54,3.89.72,3.89.72l.39.11s-.54-1.11-.83-2.74-2.06-2.92-3.01-3.38Z"/>
        <path id="shape354" class="cls-1" d="M94.94,112.02s-.03.39-.15,1.05c-.14.68-.3,1.52-.77,2.77-.47,1.25-.51,2.86-.18,3.87.33.99,2.49,3.08,2.49,3.08l.24.32s.32-1.2,1.14-2.6c.84-1.41.32-3.56-.12-4.53-.44-1.01-2.66-3.96-2.66-3.96Z"/>
        <path id="shape357" class="cls-1" d="M106.95,100.76c-.47.51-1.05,1.13-2.09,1.96-1.04.83-1.92,2.2-2.15,3.23-.24,1.02.53,3.91.53,3.91l.03.41s.9-.87,2.33-1.64c1.44-.77,2.1-2.87,2.25-3.93.15-1.07-.24-4.75-.24-4.75,0,0-.21.3-.66.81Z"/>
        <path id="shape360" class="cls-1" d="M116.18,100.42c-1.28.38-2.6,1.32-3.19,2.2-.6.86-.95,3.85-.95,3.85l-.12.38s1.16-.48,2.77-.66c1.62-.2,3.02-1.9,3.55-2.83.51-.93,1.53-4.5,1.53-4.5,0,0-.32.23-.93.51-.6.3-1.38.66-2.66,1.05Z"/>
        <path id="shape363" class="cls-1" d="M121.19,131.56c-1.32,0-2.84.54-3.67,1.22-.83.66-1.98,3.43-1.98,3.43l-.23.33s1.23-.14,2.86.14c1.61.27,3.43-.98,4.19-1.71.77-.74,2.74-3.88,2.74-3.88,0,0-.36.11-1.04.24-.69.09-1.53.23-2.87.24Z"/>
        <path id="shape366" class="cls-1" d="M124.87,106.14c-1.17.62-2.28,1.79-2.72,2.75-.42.96-.2,3.97-.2,3.97l-.05.39s1.04-.68,2.59-1.17c1.56-.5,2.6-2.44,2.95-3.44.33-1.02.65-4.71.65-4.71,0,0-.27.27-.81.68-.53.39-1.23.92-2.4,1.53Z"/>
        <path id="shape369" class="cls-1" d="M111.41,67.8c-1.19.62-2.27,1.81-2.71,2.77-.41.98-.18,3.97-.18,3.97l-.03.39s1.02-.69,2.59-1.19c1.56-.5,2.59-2.45,2.92-3.46.33-1.02.63-4.71.63-4.71,0,0-.27.27-.81.69-.54.39-1.23.92-2.4,1.53Z"/>
        <path id="shape372" class="cls-1" d="M79.27,58.48c-.44.54-.96,1.22-1.94,2.12-.99.89-1.74,2.33-1.91,3.37-.17,1.05.83,3.88.83,3.88l.06.39s.81-.93,2.19-1.82c1.4-.87,1.88-3.01,1.95-4.08.06-1.07-.57-4.72-.57-4.72,0,0-.21.33-.62.86Z"/>
        <path id="shape375" class="cls-1" d="M112.25,95.9c-.29.36-.63.8-1.28,1.38-.65.59-1.14,1.52-1.26,2.2-.09.69.54,2.54.54,2.54l.05.26s.54-.6,1.44-1.17,1.23-1.97,1.28-2.68c.03-.69-.38-3.08-.38-3.08,0,0-.12.23-.39.56Z"/>
        <path id="shape378" class="cls-1" d="M107.07,61.65s-.03.24-.14.69c-.12.44-.26.96-.62,1.76-.33.8-.42,1.85-.24,2.53.18.66,1.52,2.11,1.52,2.11l.14.21s.26-.77.84-1.65c.59-.89.32-2.3.09-2.96-.26-.68-1.59-2.68-1.59-2.68Z"/>
        <path id="shape381" class="cls-1" d="M65.21,76.13c-.29.36-.63.8-1.28,1.38-.65.59-1.14,1.52-1.26,2.2-.09.69.54,2.54.54,2.54l.05.26s.54-.6,1.44-1.17,1.23-1.97,1.28-2.68c.03-.69-.39-3.08-.39-3.08,0,0-.11.23-.38.56Z"/>
        <path id="shape384" class="cls-1" d="M48.84,62.52s-.08.24-.27.63c-.21.39-.45.9-.98,1.61-.51.69-.81,1.71-.78,2.41.03.69,1.04,2.38,1.04,2.38l.09.24s.41-.69,1.17-1.43c.77-.75.81-2.18.72-2.89-.11-.69-.99-2.95-.99-2.95Z"/>
        <path id="shape387" class="cls-1" d="M54.89,93.67c-.62.33-2.42,1.94-2.42,1.94,0,0,.24,0,.69.03.44.06.99.12,1.83.38.83.24,1.89.18,2.54-.09.62-.26,1.86-1.77,1.86-1.77l.2-.17s-.8-.14-1.76-.62c-.96-.48-2.33-.03-2.95.3Z"/>
        <path id="shape390" class="cls-1" d="M61.52,105.65c-.63-.3-3.01-.8-3.01-.8,0,0,.15.2.38.57.21.39.5.89.8,1.68.3.81.99,1.62,1.59,1.99.59.35,2.55.44,2.55.44l.24.06s-.36-.74-.56-1.79c-.2-1.02-1.37-1.85-2-2.15Z"/>
        <path id="shape393" class="cls-1" d="M20.77,107.39c-.69-.11-3.1.12-3.1.12,0,0,.21.14.54.45.32.3.74.69,1.25,1.38.54.69,1.43,1.26,2.1,1.43.68.17,2.57-.33,2.57-.33l.27-.02s-.57-.59-1.05-1.53c-.53-.96-1.89-1.4-2.59-1.5Z"/>
        <path id="shape396" class="cls-1" d="M19.93,127.77s.08.24.11.69c.06.44.12.99.08,1.87-.05.86.26,1.88.68,2.44.41.56,2.16,1.43,2.16,1.43l.2.15s-.03-.81.2-1.85c.24-1.05-.53-2.29-.98-2.8-.47-.54-2.43-1.93-2.43-1.93Z"/>
        <path id="shape399" class="cls-1" d="M101.36,91.94c-.44-.05-1.01-.08-1.85-.3-.84-.23-1.91-.12-2.52.17-.63.29-1.82,1.85-1.82,1.85l-.2.18s.81.12,1.79.54c.96.45,2.33-.05,2.93-.41.6-.35,2.36-2.02,2.36-2.02,0,0-.26.03-.69-.02Z"/>
        <path id="shape402" class="cls-1" d="M133.15,130.33c-.36.27-.8.63-1.55,1.04-.75.44-1.47,1.23-1.73,1.87-.27.63-.06,2.59-.06,2.59l-.03.26s.66-.47,1.68-.81c1.01-.35,1.65-1.62,1.86-2.3.2-.66.33-3.08.33-3.08,0,0-.17.18-.51.45Z"/>
        <path id="shape405" class="cls-1" d="M119.7,143.24c-.29-.35-.66-.77-1.11-1.5-.45-.75-1.26-1.41-1.91-1.65-.65-.23-2.6.05-2.6.05l-.26-.02s.5.65.87,1.65c.39.99,1.7,1.58,2.37,1.76s3.1.24,3.1.24c0,0-.18-.18-.47-.53Z"/>
        <path id="shape408" class="cls-1" d="M103.61,122.13c-.86.08-1.82.53-2.31,1.01-.5.48-1.1,2.36-1.1,2.36l-.12.23s.8-.17,1.86-.08c1.07.08,2.16-.84,2.62-1.37.45-.54,1.55-2.69,1.55-2.69,0,0-.23.09-.66.21-.42.11-.96.24-1.83.33Z"/>
        <path id="shape411" class="cls-1" d="M134.4,111.05c-.71-.53-1.7-.86-2.4-.83-.69.03-2.4,1.01-2.4,1.01l-.24.08s.71.42,1.43,1.2,2.16.86,2.86.77c.71-.08,2.96-.93,2.96-.93,0,0-.23-.08-.63-.29-.38-.23-.87-.5-1.56-1.01Z"/>
        <path id="shape414" class="cls-1" d="M81.33,84.7c-.86.05-1.85.45-2.34.92-.51.47-1.19,2.3-1.19,2.3l-.14.23s.8-.12,1.86,0c1.05.12,2.21-.75,2.68-1.26.48-.51,1.65-2.63,1.65-2.63,0,0-.23.08-.66.18-.44.11-.98.23-1.86.27Z"/>
        <path id="shape417" class="cls-1" d="M60.06,126.03c-1.05.24-1.82,1.46-2.07,2.11-.27.65-.65,3.05-.65,3.05,0,0,.2-.17.56-.42.38-.24.86-.54,1.65-.89s1.58-1.07,1.89-1.68c.32-.62.32-2.59.32-2.59l.03-.24s-.69.41-1.73.66Z"/>
        <path id="shape420" class="cls-1" d="M53.84,110.31c-.51.12-2.09.98-2.09.98,0,0,.18.03.5.15.32.11.69.26,1.26.57.56.32,1.32.45,1.83.39.51-.09,1.65-.96,1.65-.96l.17-.09s-.54-.24-1.16-.75c-.6-.51-1.68-.42-2.16-.29Z"/>
        <path id="shape423" class="cls-1" d="M45.5,95.62s0,.24-.05.69c-.06.44-.12.99-.38,1.84-.24.83-.18,1.9.09,2.54.26.62,1.77,1.87,1.77,1.87l.17.2s.15-.8.62-1.76c.47-.95.03-2.33-.3-2.95-.32-.6-1.92-2.42-1.92-2.42Z"/>
        <path id="shape426" class="cls-1" d="M37.84,139.33s-.66.47-1.67.83c-1.01.35-1.64,1.64-1.85,2.32-.21.68-.33,3.08-.33,3.08,0,0,.17-.18.53-.47.33-.27.8-.63,1.55-1.05.75-.42,1.44-1.22,1.71-1.87.26-.65.05-2.6.05-2.6l.02-.24Z"/>
      </g>
      <g id="g2">
        <path id="shape3" class="cls-2" d="M81.09,112.3c-1.35-2.2-3.19-4.62-5.06-7.11-1.85-2.5-3.73-5.05-5.11-7.51-1.01-1.76-2.15-3.11-3.38-4.15-1.85-1.56-3.89-2.44-6-3.28-2.12-.83-4.34-1.64-6.7-3.02-1.38-.8-2.42-1.87-3.23-3.08-1.2-1.79-2.41-3.73-2.74-5.48-.26-2.74-.04-4.09-.59-5.98-.86.62-.86,2.66-.97,3.98-.02.26.12,3.58.45,4.33.58,1.7,1.5,3.02,2.47,4.43.96,1.43,2.64,2.77,4.32,3.75,3.43,2,5.64,2.8,8.15,3.96,1.26.57,2.39,1.2,3.41,2.08,1.05.89,1.98,1.99,2.9,3.56,10.76,13.28,13.22,24.23,9.23,41.21,2-2.74,3.28-5.97,4.1-9.19.81-3.23,1.14-6.47,1.14-9.21,0-2.06-.18-3.82-.51-5.16-.27-1.31-.98-2.68-1.88-4.14h0Z"/>
        <path id="shape4" class="cls-2" d="M69.8,99.98s.8,1.99,1.76,4.15c.5,1.08,1.04,2.23,1.55,3.2.26.48.5.93.75,1.31.24.39.48.72.75,1.01.29.29.68.75,1.08,1.32,1.22,1.73,2.65,4.45,3.32,6.71.18.66.32,1.76.32,3.04.09,4.77-.57,6.66-3.07,10.47l-6.28,9.97c-1.4,1.47-2.87,3.1-4.27,4.86-2.27,2.89-4.57,6.11-6.3,9.18-.86,1.55-1.59,3.05-2.12,4.47-.53,1.41-.84,2.75-.84,4-.2,3.04-.89,5.55-2.74,8.89-1.75,2.25-1.62,2.65-7.77,8.28,10.95.07,21.74.05,32.62-.02-3.65-2.58-5.65-4.32-7.56-5.99-.95-.81-1.88-1.87-2.55-3.1-.69-1.23-1.13-2.66-1.13-4.38,0-.36.02-.74.06-1.13.24-2.05.83-4.47,1.62-6.96,6.41-15.51,25.22-35.25.8-59.26h0Z"/>
        <path id="shape5" class="cls-2" d="M79.91,67.06c-.56,0-3.59,4.19-3.94,6.51-.38,2.35-.74,5.34-.74,8.12,0,4.82-2.02,9.04-2.92,10.35-.84,1.21-2.26,3.16-4.04,5.52l2.29,3.65,1.83-1.2-1.13-1.7c-.51.3,1.32-2,3.58-6.26,1.38-2.69,2.57-6.47,2.57-10.36,0-2.6-.32-6,.02-8.26.27-2.04,2.06-4.13,2.46-6.37h0Z"/>
        <path id="shape7" class="cls-2" d="M105.78,69.09c-.21-.39,1.51,5.49-.28,8.06-.27.39-.46.97-6.05,7.55-3.1,2.44-7.38,5.66-11.06,8.78-2.46,2.09-5.05,4.51-6.49,6.62-1.44,2.39-1.9,5.27-2.69,7.93-.26.84-.48,1.58-.63,2.09l2,1.75s.78-5.18,1.9-9.32c.48-2.12,2.21-3.67,3.71-5.13,3.98-3.84,10.07-8.35,14.17-11.58,3.26-2.57,5.08-6.11,6.09-8.99,1.02-2.87.3-5.3.3-5.34l-.98-2.42Z"/>
        <path id="shape9" class="cls-2" d="M120.94,115.52c-.95.83-2.07,1.51-2.66,2.48-.41.65-.93,1.59-1.59,2.72-.98,1.67-2.22,3.72-3.59,5.57-1.35,1.87-2.86,3.53-4.25,4.44-.95.62-2.45,1.34-4.25,2.09-5.44,2.2-11.53,3.4-17.31,4.72-8.01,1.84-14.05,6.39-14.16,6.5l1.47,1.62c-5.54,8.87,5.6-3.31,13.18-5.99,3.92-.9,6.75-1.13,11.3-2.59,2.28-.72,4.46-1.49,6.34-2.24,1.88-.78,3.46-1.53,4.63-2.29,1.17-.78,2.27-1.85,3.32-3.07,1.55-1.81,2.95-3.94,4.12-5.87,1.17-1.9,2.1-3.59,2.65-4.51.98-1.16,3.32-3.61,4.77-4.62,1.38-.84,5.31-1,4.74-1.21-1.39-.47-1.7-.29-3.56-.36-1.82.28-3.53,1.23-5.13,2.6h0Z"/>
        <path id="shape12" class="cls-2" d="M109.46,107.46s-2.01.65-4.22,2.29c-2.19,1.61-4.73,4.17-5.95,7.85-1.2,3.58-1.55,6.92-1.85,9.54-.15,1.32-.29,2.45-.48,3.34-.21.89-.48,1.49-.81,1.81-.44.44-1.1.98-1.82,1.52-1.1.83-2.37,1.67-3.37,2.3-.5.32-.92.57-1.22.77-.15.09-.27.17-.36.21-.08.06-.12.08-.12.08l.75,1.26s1.29-.77,2.83-1.79c.77-.5,1.59-1.07,2.36-1.64s1.46-1.14,1.98-1.65c.65-.65.96-1.53,1.19-2.53.35-1.52.48-3.4.77-5.58.27-2.17.68-4.6,1.53-7.16,1.1-3.29,3.4-5.63,5.46-7.14,1.02-.75,1.85-1.44,2.54-1.8,1.06-.76,2.56-2.03,2.33-1.98l-1.54.32Z"/>
        <path id="shape16" class="cls-2" d="M126.84,135.43c-.36.44-1.34,1.01-2.85,1.74-1.08.54-2.34.77-3.67.77-2.8,0-5.79-.99-7.8-1.61-.83-.26-1.97-.44-3.28-.59-3.89-.47-9.08-.65-9.09-.65l-.06,1.44s.14,0,.39.02c.92.05,3.2.15,5.59.33,1.19.11,2.39.23,3.46.36s2,.3,2.57.48c2,.6,5.11,1.65,8.22,1.65,1.47,0,2.95-.23,4.3-.9,1.62-.8,2.57-1.53,3.13-2.2.57-.66.72-1.25.72-1.62,0-.18-.18-.93-.29-.97-.15-.13-.38.81-1.34,1.74h0Z"/>
        <path id="shape18" class="cls-2" d="M58.71,132.51c-3.35-1.61-7.07-2.05-9.67-2.64-2.62-.59-4.78-1.08-6.45-2.15-.78-.5-1.49-1.32-2.16-2.39-1.02-1.61-1.92-3.72-2.96-5.91-1.04-2.2-2.22-4.45-3.83-6.35-1.1-1.29-2.18-2.14-3.16-2.63-.99-.51-1.92-.69-2.69-.69-1.49,0-2.4.65-2.48.71-.75.46-1.61,1.05-1.35,1.46.2.34,3.33-.95,4.28-.86.55.05.77.29,1.58.7.8.42,1.71,1.11,2.72,2.29,1.95,2.3,3.31,5.35,4.63,8.17.66,1.41,1.29,2.75,2.04,3.93.74,1.16,1.56,2.17,2.62,2.84,1.98,1.26,4.31,1.74,6.9,2.35,2.59.59,5.47,1.26,8.66,2.8,3.13,1.49,5.88,4.06,7.82,6.24.98,1.1,1.74,2.11,2.27,2.83.32.42.79,1.14.8,1.14l2.82-2.43c-.21-.45-2.07-1.37-4.1-3.64-2.01-2.3-4.86-4.11-8.27-5.75h0Z"/>
        <path id="shape20" class="cls-2" d="M52.59,132.53c-2.25.24-5.02.69-7.15,1.49-3.97,1.5-8.57,2.72-12.73,2.72-2.06,0-3.64-.41-4.7-.81-.52-.19-1.09-.44-1.56-.75l-2.23-2.2c-.27.4.59,1.94,1.37,3.38.77.56,2.65,1.85,7.14,1.85s9.15-1.29,13.24-2.83c1.91-.72,4.61-1.17,6.79-1.4.99-.11,2.24-.47,4.45,0l-.59-1.74s-1.76.05-4.03.3h0Z"/>
        <path id="shape22" class="cls-2" d="M47.62,127.5c-.66-.72-1.2-1.35-1.22-2.08,0-.83.03-1.8.47-2.78.42-.99.75-2.05,1.12-3.11.75-2,1.32-4.8,1.32-7.36,0-1.28-.14-2.5-.51-3.55-.23-.6-.3-1.29-.3-1.99,0-.99.2-2,.36-2.75.11-.38.2-.68.27-.89.07-.19.3-1.83.15-1.73l-.85,1.05c-.22.27-1.39,1.94-1.4,4.3,0,.81.11,1.67.39,2.48s.42,1.88.42,3.05c0,2.33-.54,5.02-1.23,6.84-.35.92-.87,1.93-1.32,2.99-.47,1.05-.86,2.17-.86,3.32,0,1.07.38,2.17,1.26,3.13,2.55,2.75,4.25,3.02,4.4,3.06.12-.47.19-.73.33-1.2,3.16.81-.55-.37-2.81-2.82h0Z"/>
        <path id="shape24" class="cls-2" d="M79.63,124.85c-.38-1.58-1.26-3.75-2.42-5.91-1.16-2.17-2.54-4.29-3.95-5.73-1.11-1.11-2.59-1.85-4.13-2.32-1.56-.47-3.23-.66-4.81-.66-1.08,0-2.13.09-3.07.26-1.91.35-3.85,1.35-5.32,2.27-1.49.9-2.1,1.13-2.52,1.74l-1.33,3.23c-.43.92,2.7-3.16,4.68-4.18,1.4-.72,3.27-1.37,4.76-1.62.84-.15,1.8-.23,2.83-.23,1.46,0,2.99.17,4.39.6,1.4.41,2.65,1.05,3.52,1.94,1.26,1.25,2.18,3.31,3.28,5.38,1.1,2.06,2.8,7.61,3.12,8.98l2.08.54s-.03-.08-.08-.26c-.15-.53-.51-1.87-1.02-4.05h0Z"/>
        <path id="shape26" class="cls-2" d="M65.53,119.64c-1.16.45-2.19,1.16-3.32,2.05-1.16.87-2.43,1.93-4.12,3.08-.33.23-3.14,2.1-4.49.89-1.01-1.1-1.39-2.94-1.4-2.67v1.53c.55,1.68,1.08,2.4,2.76,2.52,2.09.15,2.73-.28,3.95-1.09,2.31-1.58,3.89-2.98,5.23-3.91,1.34-.93,2.48-1.41,3.94-1.41,2.96,0,8.27.53,9.06.63l.17-1.46s-5.76-.65-9.21-.65c-.95.02-1.79.18-2.57.48h0Z"/>
      </g>
    </g>
  </g>
  <g class="cls-7">
    <path class="cls-4" d="M192.08,177.46v-16.01h5.48c1.25,0,2.27.23,3.08.68s1.4,1.07,1.79,1.83c.39.77.59,1.62.59,2.58s-.2,1.81-.59,2.59c-.39.77-.99,1.39-1.79,1.85-.8.46-1.83.69-3.07.69h-3.45v5.79h-2.04ZM194.12,169.88h3.35c1.27,0,2.17-.32,2.71-.95s.81-1.43.81-2.38-.27-1.73-.81-2.36c-.54-.63-1.45-.94-2.73-.94h-3.33v6.63Z"/>
    <path class="cls-4" d="M206.27,177.46v-12.01h1.87v1.85h.13c.22-.61.62-1.1,1.19-1.47s1.21-.55,1.93-.55c.14,0,.31,0,.51,0,.2,0,.35.02.47.02v1.95c-.06-.01-.2-.04-.43-.06-.23-.03-.47-.04-.73-.04-.87,0-1.58.26-2.15.79-.57.53-.85,1.19-.85,2v7.52h-1.93Z"/>
    <path class="cls-4" d="M218.29,177.74c-.76,0-1.45-.14-2.07-.43-.62-.29-1.11-.71-1.48-1.26-.37-.55-.55-1.22-.55-2.01,0-.69.14-1.25.41-1.68.27-.43.64-.77,1.09-1.02.45-.25.96-.43,1.51-.55.55-.12,1.11-.22,1.67-.29.72-.09,1.3-.16,1.75-.21.45-.05.79-.13,1-.26.22-.12.33-.33.33-.62v-.06c0-.74-.21-1.32-.63-1.73-.42-.41-1.05-.62-1.88-.62s-1.54.19-2.03.56c-.49.38-.82.78-1.01,1.2l-1.86-.61c.31-.73.72-1.3,1.25-1.71.52-.41,1.1-.7,1.73-.88.63-.17,1.25-.26,1.87-.26.4,0,.86.05,1.37.14.51.1,1.01.29,1.48.57.48.29.87.71,1.18,1.27s.47,1.31.47,2.25v7.92h-1.9v-1.63h-.13c-.14.28-.35.57-.66.86-.3.3-.69.55-1.17.75-.48.2-1.06.3-1.74.3ZM218.62,176.03c.72,0,1.32-.14,1.82-.42s.87-.64,1.13-1.09c.26-.45.39-.92.39-1.4v-1.67c-.08.09-.25.18-.52.25-.27.08-.57.14-.91.2-.34.06-.67.11-.99.15-.32.04-.57.07-.76.09-.47.06-.9.16-1.31.3-.4.14-.73.34-.97.61-.24.27-.37.63-.37,1.09,0,.62.23,1.09.7,1.41.47.32,1.06.48,1.78.48Z"/>
    <path class="cls-4" d="M232.52,182.21c-1.33,0-2.4-.24-3.19-.73-.79-.49-1.38-1.06-1.75-1.72l1.57-1.01c.17.23.38.48.64.76.25.28.6.52,1.03.71.43.2,1,.29,1.7.29.96,0,1.75-.23,2.37-.69.62-.46.93-1.18.93-2.17v-2.41h-.18c-.14.23-.33.5-.57.82-.25.32-.6.59-1.06.83-.46.24-1.08.36-1.85.36-.96,0-1.82-.23-2.59-.68-.77-.45-1.37-1.12-1.82-1.99-.44-.87-.67-1.94-.67-3.19s.22-2.32.66-3.23c.44-.91,1.04-1.62,1.81-2.12.77-.5,1.65-.75,2.65-.75.77,0,1.39.13,1.85.38s.82.55,1.07.88c.25.33.44.6.58.82h.18v-1.92h1.88v12.32c0,1.03-.23,1.88-.7,2.53-.47.66-1.09,1.14-1.89,1.44-.79.31-1.67.46-2.65.46ZM232.47,175.55c1.09,0,1.92-.37,2.5-1.11s.87-1.77.87-3.08-.28-2.32-.85-3.12-1.41-1.21-2.52-1.21c-.76,0-1.39.2-1.9.59-.51.39-.89.91-1.14,1.56-.25.65-.38,1.38-.38,2.18,0,1.23.29,2.24.87,3.02.58.78,1.43,1.17,2.56,1.17Z"/>
    <path class="cls-4" d="M241.52,177.46v-12.01h1.88v2.2c.3-.81.76-1.41,1.38-1.81.62-.4,1.28-.6,1.99-.6.79,0,1.44.22,1.96.67.52.45.89,1.04,1.1,1.78.29-.76.77-1.36,1.46-1.79.68-.44,1.46-.65,2.33-.65.69,0,1.33.15,1.9.45.57.3,1.03.76,1.37,1.36.34.61.51,1.38.51,2.31v8.1h-1.94v-8.05c0-.87-.24-1.49-.73-1.86-.48-.37-1.05-.56-1.69-.56-.81,0-1.45.25-1.91.74-.47.49-.7,1.12-.7,1.88v7.84h-1.93v-8.24c0-.67-.22-1.2-.67-1.61-.44-.41-1.01-.61-1.69-.61s-1.33.24-1.87.73c-.54.49-.82,1.21-.82,2.17v7.56h-1.93Z"/>
    <path class="cls-4" d="M264.53,177.74c-.76,0-1.45-.14-2.07-.43-.62-.29-1.11-.71-1.48-1.26-.37-.55-.55-1.22-.55-2.01,0-.69.14-1.25.41-1.68.27-.43.64-.77,1.09-1.02.45-.25.96-.43,1.51-.55.55-.12,1.11-.22,1.67-.29.72-.09,1.3-.16,1.75-.21.45-.05.79-.13,1-.26.22-.12.33-.33.33-.62v-.06c0-.74-.21-1.32-.63-1.73-.42-.41-1.05-.62-1.88-.62s-1.54.19-2.03.56c-.49.38-.82.78-1.01,1.2l-1.86-.61c.31-.73.72-1.3,1.25-1.71.52-.41,1.1-.7,1.73-.88.63-.17,1.25-.26,1.87-.26.4,0,.86.05,1.37.14.51.1,1.01.29,1.48.57.48.29.87.71,1.18,1.27s.47,1.31.47,2.25v7.92h-1.9v-1.63h-.13c-.14.28-.35.57-.66.86-.3.3-.69.55-1.17.75-.48.2-1.06.3-1.74.3ZM264.86,176.03c.72,0,1.32-.14,1.82-.42s.87-.64,1.13-1.09c.26-.45.39-.92.39-1.4v-1.67c-.08.09-.25.18-.52.25-.27.08-.57.14-.91.2-.34.06-.67.11-.99.15-.32.04-.57.07-.76.09-.47.06-.9.16-1.31.3-.4.14-.73.34-.97.61-.24.27-.37.63-.37,1.09,0,.62.23,1.09.7,1.41.47.32,1.06.48,1.78.48Z"/>
    <path class="cls-4" d="M278.62,165.45v1.65h-2.47v7.24c0,.54.11.93.33,1.18.22.25.58.37,1.09.37.12,0,.28-.01.47-.04.19-.03.36-.06.52-.09l.4,1.63c-.2.07-.43.12-.68.16-.25.04-.51.05-.76.05-1.04,0-1.85-.27-2.43-.82s-.87-1.31-.87-2.29v-7.39h-1.8v-1.65h1.8v-2.86h1.93v2.86h2.47Z"/>
    <path class="cls-4" d="M282.44,163.48c-.37,0-.68-.12-.95-.38-.27-.25-.4-.55-.4-.9s.13-.66.4-.91c.26-.25.58-.37.95-.37s.69.12.96.37c.26.25.4.55.4.91s-.13.65-.4.9c-.27.25-.58.38-.96.38ZM281.47,177.46v-12.01h1.93v12.01h-1.93Z"/>
    <path class="cls-4" d="M292.06,177.72c-1.09,0-2.04-.26-2.86-.77-.82-.52-1.46-1.24-1.92-2.17-.46-.93-.69-2.01-.69-3.24s.23-2.35.69-3.28,1.1-1.66,1.92-2.17c.82-.52,1.77-.77,2.86-.77,1.16,0,2.18.29,3.06.88.88.58,1.48,1.4,1.81,2.44l-1.86.53c-.18-.62-.53-1.12-1.05-1.52-.52-.4-1.17-.6-1.96-.6s-1.46.21-1.98.63-.9.97-1.15,1.65c-.25.68-.38,1.42-.38,2.22s.12,1.52.38,2.2.63,1.22,1.15,1.64c.52.42,1.17.62,1.98.62s1.48-.21,2-.62c.53-.41.88-.94,1.06-1.6l1.85.53c-.32,1.07-.93,1.9-1.82,2.51s-1.92.91-3.09.91Z"/>
    <path class="cls-4" d="M312.03,177.74c-1.73,0-3.11-.41-4.14-1.23s-1.58-1.9-1.68-3.24h2.09c.06.6.26,1.1.61,1.49.35.39.8.68,1.35.87.55.19,1.13.29,1.76.29.72,0,1.37-.12,1.95-.36.58-.24,1.03-.57,1.37-1s.5-.93.5-1.49c0-.52-.15-.93-.43-1.26-.29-.32-.68-.59-1.16-.79-.48-.21-1.01-.39-1.58-.55l-1.93-.55c-1.29-.37-2.29-.89-3.01-1.57-.72-.68-1.07-1.55-1.07-2.61,0-.9.24-1.69.73-2.37s1.15-1.2,1.98-1.57c.83-.37,1.76-.56,2.79-.56s1.98.19,2.79.56c.81.37,1.45.88,1.92,1.52.47.64.72,1.37.75,2.18h-2c-.09-.78-.47-1.38-1.12-1.81s-1.45-.64-2.41-.64c-1.04,0-1.87.25-2.5.74-.63.49-.95,1.11-.95,1.86,0,.56.17,1.01.52,1.35.35.34.76.61,1.24.79.48.19.91.34,1.29.45l1.6.44c.43.11.9.27,1.42.47.52.2,1.01.47,1.49.8s.86.76,1.17,1.27c.3.51.46,1.14.46,1.89,0,.87-.23,1.66-.68,2.36-.46.7-1.12,1.26-1.98,1.66s-1.92.61-3.15.61Z"/>
    <path class="cls-4" d="M326.05,177.72c-1.09,0-2.04-.26-2.86-.77-.82-.52-1.46-1.24-1.92-2.17-.46-.93-.69-2.01-.69-3.24s.23-2.35.69-3.28,1.1-1.66,1.92-2.17c.82-.52,1.77-.77,2.86-.77s2.06.26,2.88.77c.82.52,1.46,1.24,1.92,2.17s.69,2.03.69,3.28-.23,2.31-.69,3.24c-.46.93-1.1,1.65-1.92,2.17-.82.52-1.78.77-2.88.77ZM326.05,175.99c.81,0,1.48-.21,2-.62.52-.41.91-.96,1.16-1.64s.38-1.41.38-2.2-.12-1.54-.38-2.22-.64-1.24-1.16-1.65-1.19-.63-2-.63-1.46.21-1.98.63-.9.97-1.15,1.65c-.25.68-.38,1.42-.38,2.22s.12,1.52.38,2.2.63,1.22,1.15,1.64c.52.42,1.17.62,1.98.62Z"/>
    <path class="cls-4" d="M336.66,161.45v16.01h-1.93v-16.01h1.93Z"/>
    <path class="cls-4" d="M344.5,177.61c-1.21,0-2.19-.38-2.94-1.13s-1.13-1.89-1.13-3.4v-7.63h1.93v7.46c0,.92.24,1.65.73,2.17.49.52,1.15.79,1.99.79s1.58-.28,2.15-.84c.58-.56.87-1.36.87-2.38v-7.2h1.94v12.01h-1.87v-2.25c-.39.88-.91,1.49-1.54,1.85-.63.36-1.34.54-2.13.54Z"/>
    <path class="cls-4" d="M358.54,165.45v1.65h-2.47v7.24c0,.54.11.93.33,1.18.22.25.58.37,1.09.37.12,0,.28-.01.47-.04.19-.03.36-.06.52-.09l.4,1.63c-.2.07-.43.12-.68.16-.25.04-.51.05-.76.05-1.04,0-1.85-.27-2.43-.82s-.87-1.31-.87-2.29v-7.39h-1.8v-1.65h1.8v-2.86h1.93v2.86h2.47Z"/>
    <path class="cls-4" d="M362.36,163.48c-.37,0-.68-.12-.95-.38-.26-.25-.4-.55-.4-.9s.13-.66.4-.91.58-.37.95-.37.69.12.96.37.4.55.4.91-.13.65-.4.9c-.26.25-.58.38-.96.38ZM361.38,177.46v-12.01h1.93v12.01h-1.93Z"/>
    <path class="cls-4" d="M371.97,177.72c-1.09,0-2.04-.26-2.86-.77-.82-.52-1.46-1.24-1.92-2.17-.46-.93-.69-2.01-.69-3.24s.23-2.35.69-3.28,1.1-1.66,1.92-2.17c.82-.52,1.77-.77,2.86-.77s2.06.26,2.88.77,1.46,1.24,1.92,2.17.69,2.03.69,3.28-.23,2.31-.69,3.24c-.46.93-1.1,1.65-1.92,2.17s-1.78.77-2.88.77ZM371.97,175.99c.81,0,1.48-.21,2-.62.52-.41.91-.96,1.16-1.64s.38-1.41.38-2.2-.12-1.54-.38-2.22-.64-1.24-1.16-1.65-1.19-.63-2-.63-1.46.21-1.98.63-.9.97-1.15,1.65c-.25.68-.38,1.42-.38,2.22s.12,1.52.38,2.2.63,1.22,1.15,1.64c.52.42,1.17.62,1.98.62Z"/>
    <path class="cls-4" d="M382.58,170.26v7.2h-1.93v-12.01h1.86v2.22c.4-.85.9-1.46,1.53-1.83.63-.37,1.34-.55,2.15-.55,1.22,0,2.2.38,2.94,1.13s1.12,1.89,1.12,3.41v7.63h-1.93v-7.47c0-.92-.24-1.65-.72-2.17-.48-.52-1.14-.78-1.98-.78s-1.59.28-2.16.84c-.58.56-.87,1.36-.87,2.38Z"/>
    <path class="cls-4" d="M398.1,177.72c-1.23,0-2.26-.27-3.07-.81s-1.33-1.32-1.55-2.36l1.84-.44c.17.66.5,1.14.97,1.45.48.31,1.07.46,1.79.46.84,0,1.51-.18,2-.54.5-.36.75-.79.75-1.28,0-.82-.59-1.38-1.76-1.65l-2-.47c-2.15-.51-3.22-1.6-3.22-3.28,0-.69.19-1.29.58-1.82s.92-.94,1.58-1.24c.67-.3,1.43-.45,2.28-.45,1.24,0,2.2.27,2.88.81.68.54,1.16,1.23,1.43,2.08l-1.75.45c-.17-.43-.44-.82-.82-1.17-.38-.35-.96-.53-1.74-.53-.72,0-1.31.17-1.79.49-.48.33-.71.75-.71,1.25,0,.45.16.8.48,1.07s.83.49,1.54.65l1.82.43c1.09.26,1.89.66,2.42,1.2.52.54.78,1.22.78,2.05,0,.7-.2,1.33-.6,1.88-.4.55-.95.98-1.66,1.29-.71.31-1.54.47-2.48.47Z"/>
    <path class="cls-4" d="M418.16,165.45v1.65h-2.77v10.36h-1.93v-10.36h-2.36v-1.65h2.36v-1.6c0-.69.16-1.27.49-1.74.33-.46.75-.82,1.27-1.05s1.07-.35,1.65-.35c.46,0,.84.04,1.14.11s.52.15.67.21l-.54,1.65c-.1-.04-.23-.08-.39-.12-.16-.04-.38-.06-.65-.06-.59,0-1.03.15-1.3.46s-.41.75-.41,1.33v1.17h2.77Z"/>
    <path class="cls-4" d="M425.33,177.72c-1.09,0-2.04-.26-2.86-.77-.82-.52-1.46-1.24-1.92-2.17-.46-.93-.69-2.01-.69-3.24s.23-2.35.69-3.28,1.1-1.66,1.92-2.17c.82-.52,1.77-.77,2.86-.77s2.06.26,2.88.77,1.46,1.24,1.92,2.17.69,2.03.69,3.28-.23,2.31-.69,3.24c-.46.93-1.1,1.65-1.92,2.17s-1.78.77-2.88.77ZM425.33,175.99c.81,0,1.48-.21,2-.62.52-.41.91-.96,1.16-1.64s.38-1.41.38-2.2-.12-1.54-.38-2.22-.64-1.24-1.16-1.65-1.19-.63-2-.63-1.46.21-1.98.63-.9.97-1.15,1.65c-.25.68-.38,1.42-.38,2.22s.12,1.52.38,2.2.63,1.22,1.15,1.64c.52.42,1.17.62,1.98.62Z"/>
    <path class="cls-4" d="M434.01,177.46v-12.01h1.87v1.85h.13c.22-.61.62-1.1,1.19-1.47.57-.37,1.21-.55,1.93-.55.14,0,.31,0,.51,0,.2,0,.35.02.47.02v1.95c-.06-.01-.2-.04-.43-.06-.23-.03-.47-.04-.73-.04-.87,0-1.58.26-2.15.79s-.85,1.19-.85,2v7.52h-1.93Z"/>
    <path class="cls-4" d="M452.59,177.74c-.76,0-1.45-.14-2.07-.43-.62-.29-1.11-.71-1.48-1.26-.37-.55-.55-1.22-.55-2.01,0-.69.14-1.25.41-1.68s.64-.77,1.09-1.02c.46-.25.96-.43,1.51-.55.55-.12,1.11-.22,1.67-.29.72-.09,1.3-.16,1.75-.21.45-.05.79-.13,1-.26.22-.12.33-.33.33-.62v-.06c0-.74-.21-1.32-.63-1.73s-1.05-.62-1.88-.62-1.54.19-2.03.56-.82.78-1.01,1.2l-1.86-.61c.31-.73.72-1.3,1.25-1.71s1.1-.7,1.73-.88,1.25-.26,1.87-.26c.4,0,.86.05,1.37.14.51.1,1.01.29,1.48.57.48.29.87.71,1.18,1.27.31.56.47,1.31.47,2.25v7.92h-1.9v-1.63h-.13c-.14.28-.35.57-.66.86-.3.3-.69.55-1.17.75-.48.2-1.06.3-1.74.3ZM452.92,176.03c.72,0,1.32-.14,1.82-.42s.87-.64,1.13-1.09c.26-.45.39-.92.39-1.4v-1.67c-.08.09-.25.18-.52.25s-.57.14-.91.2c-.34.06-.67.11-.99.15-.32.04-.57.07-.76.09-.47.06-.9.16-1.31.3-.4.14-.73.34-.97.61s-.37.63-.37,1.09c0,.62.23,1.09.7,1.41.47.32,1.06.48,1.78.48Z"/>
    <path class="cls-4" d="M475.23,177.67c-1.37,0-2.59-.33-3.66-.99-1.07-.66-1.91-1.61-2.53-2.84-.61-1.23-.92-2.69-.92-4.38s.31-3.16.92-4.39c.61-1.23,1.45-2.18,2.53-2.84,1.07-.67,2.29-1,3.66-1,1.08,0,2.08.21,2.98.63.91.42,1.66,1.02,2.28,1.8.61.78,1.01,1.72,1.2,2.82h-2.04c-.15-.73-.44-1.35-.88-1.85-.43-.5-.96-.88-1.57-1.13s-1.27-.38-1.97-.38c-.96,0-1.83.24-2.6.73-.77.49-1.39,1.2-1.84,2.14s-.68,2.1-.68,3.46.23,2.51.68,3.45c.45.94,1.07,1.65,1.84,2.14s1.64.73,2.59.73c.7,0,1.36-.13,1.97-.39.61-.26,1.13-.64,1.57-1.14.43-.5.72-1.11.88-1.84h2.04c-.19,1.08-.58,2.02-1.19,2.8-.6.79-1.36,1.39-2.27,1.81-.91.42-1.91.63-3,.63Z"/>
    <path class="cls-4" d="M489.85,177.72c-1.09,0-2.04-.26-2.86-.77-.82-.52-1.46-1.24-1.92-2.17-.46-.93-.69-2.01-.69-3.24s.23-2.35.69-3.28,1.1-1.66,1.92-2.17c.82-.52,1.77-.77,2.86-.77s2.06.26,2.88.77,1.46,1.24,1.92,2.17.69,2.03.69,3.28-.23,2.31-.69,3.24c-.46.93-1.1,1.65-1.92,2.17s-1.78.77-2.88.77ZM489.85,175.99c.81,0,1.48-.21,2-.62.52-.41.91-.96,1.16-1.64s.38-1.41.38-2.2-.12-1.54-.38-2.22-.64-1.24-1.16-1.65-1.19-.63-2-.63-1.46.21-1.98.63-.9.97-1.15,1.65c-.25.68-.38,1.42-.38,2.22s.12,1.52.38,2.2.63,1.22,1.15,1.64c.52.42,1.17.62,1.98.62Z"/>
    <path class="cls-4" d="M498.52,177.46v-12.01h1.88v2.2c.3-.81.76-1.41,1.38-1.81.62-.4,1.28-.6,1.99-.6.79,0,1.44.22,1.96.67.52.45.89,1.04,1.1,1.78.29-.76.77-1.36,1.46-1.79.68-.44,1.46-.65,2.33-.65.69,0,1.33.15,1.9.45s1.03.76,1.37,1.36c.34.61.51,1.38.51,2.31v8.1h-1.94v-8.05c0-.87-.24-1.49-.73-1.86-.48-.37-1.05-.56-1.69-.56-.81,0-1.45.25-1.91.74s-.7,1.12-.7,1.88v7.84h-1.93v-8.24c0-.67-.22-1.2-.67-1.61s-1.01-.61-1.69-.61-1.33.24-1.87.73c-.54.49-.82,1.21-.82,2.17v7.56h-1.93Z"/>
    <path class="cls-4" d="M518.17,181.95v-16.5h1.87v1.92h.21c.14-.21.33-.48.57-.81s.59-.62,1.05-.88c.46-.26,1.08-.39,1.86-.39,1,0,1.88.25,2.65.75.76.5,1.36,1.21,1.79,2.14.43.93.65,2.03.65,3.29s-.21,2.38-.64,3.31c-.43.93-1.03,1.65-1.79,2.16-.76.51-1.64.76-2.65.76-.76,0-1.37-.13-1.84-.39s-.82-.56-1.07-.89-.44-.61-.58-.83h-.15v6.35h-1.93ZM523.46,175.99c.75,0,1.38-.2,1.88-.61.51-.4.88-.95,1.14-1.63.25-.68.38-1.44.38-2.28s-.12-1.58-.38-2.25c-.25-.67-.63-1.2-1.13-1.59-.51-.39-1.14-.59-1.9-.59-1.1,0-1.94.41-2.51,1.22s-.86,1.89-.86,3.21.29,2.43.87,3.27,1.41,1.26,2.5,1.26Z"/>
    <path class="cls-4" d="M533.95,161.45v16.01h-1.93v-16.01h1.93Z"/>
    <path class="cls-4" d="M542.77,177.72c-1.16,0-2.16-.26-3-.77-.84-.52-1.49-1.24-1.95-2.16-.45-.92-.68-2-.68-3.23s.22-2.32.67-3.26c.44-.94,1.07-1.67,1.88-2.2.81-.53,1.76-.79,2.85-.79.64,0,1.27.11,1.89.32.62.21,1.18.55,1.69,1.02.51.47.91,1.09,1.21,1.85.3.77.45,1.71.45,2.81v.81h-8.68c.05,1.25.41,2.21,1.08,2.88.67.67,1.54,1,2.6,1,.71,0,1.32-.16,1.83-.47.51-.31.88-.77,1.1-1.38l1.87.52c-.28.91-.84,1.64-1.69,2.21-.85.56-1.89.84-3.12.84ZM539.1,170.48h6.7c-.09-1.02-.41-1.86-.96-2.5-.55-.64-1.32-.96-2.3-.96-.69,0-1.28.16-1.78.48-.5.32-.89.75-1.18,1.27-.29.52-.45,1.09-.48,1.71Z"/>
    <path class="cls-4" d="M549.42,177.46l4.22-6.17-3.97-5.84h2.26l1.49,2.33c.27.43.52.84.74,1.22.22.38.43.76.64,1.12.19-.37.39-.74.59-1.12.2-.38.44-.79.72-1.22l1.53-2.33h2.21l-4.02,5.95,4.21,6.06h-2.25l-1.76-2.7c-.26-.41-.5-.8-.71-1.17-.21-.37-.41-.72-.61-1.06-.19.34-.38.69-.57,1.06-.19.37-.43.76-.7,1.17l-1.78,2.7h-2.23Z"/>
    <path class="cls-4" d="M572.59,177.46l-4.36-16.01h2.08l2.54,9.82c.17.69.34,1.38.49,2.09s.31,1.44.45,2.19c.14-.75.29-1.48.45-2.19s.33-1.41.52-2.09l2.59-9.82h2.32l2.57,9.82c.36,1.34.68,2.75.98,4.22.14-.74.28-1.46.45-2.15.16-.7.33-1.39.5-2.07l2.52-9.82h2.11l-4.38,16.01h-2.37l-2.75-10.14c-.14-.51-.27-1.05-.4-1.63-.13-.58-.26-1.22-.38-1.92-.12.65-.24,1.26-.37,1.83s-.26,1.14-.42,1.72l-2.74,10.14h-2.38Z"/>
    <path class="cls-4" d="M595.19,177.72c-1.09,0-2.04-.26-2.86-.77-.82-.52-1.46-1.24-1.92-2.17-.46-.93-.69-2.01-.69-3.24s.23-2.35.69-3.28,1.1-1.66,1.92-2.17c.82-.52,1.77-.77,2.86-.77s2.06.26,2.88.77,1.46,1.24,1.92,2.17.69,2.03.69,3.28-.23,2.31-.69,3.24c-.46.93-1.1,1.65-1.92,2.17s-1.78.77-2.88.77ZM595.19,175.99c.81,0,1.48-.21,2-.62.52-.41.91-.96,1.16-1.64s.38-1.41.38-2.2-.12-1.54-.38-2.22-.64-1.24-1.16-1.65-1.19-.63-2-.63-1.46.21-1.98.63-.9.97-1.15,1.65c-.25.68-.38,1.42-.38,2.22s.12,1.52.38,2.2.63,1.22,1.15,1.64c.52.42,1.17.62,1.98.62Z"/>
    <path class="cls-4" d="M603.87,177.46v-12.01h1.87v1.85h.13c.22-.61.62-1.1,1.19-1.47.57-.37,1.21-.55,1.93-.55.14,0,.31,0,.51,0,.2,0,.35.02.47.02v1.95c-.06-.01-.2-.04-.43-.06-.23-.03-.47-.04-.73-.04-.87,0-1.58.26-2.15.79s-.85,1.19-.85,2v7.52h-1.93Z"/>
    <path class="cls-4" d="M614.8,161.45v16.01h-1.93v-16.01h1.93Z"/>
    <path class="cls-4" d="M623.07,177.72c-1,0-1.88-.25-2.64-.76-.77-.51-1.36-1.23-1.79-2.16-.43-.93-.64-2.03-.64-3.31s.22-2.37.65-3.29c.43-.93,1.03-1.64,1.8-2.14.77-.5,1.65-.75,2.64-.75.78,0,1.4.13,1.86.39s.81.55,1.06.88c.25.33.44.6.56.81h.15v-5.92h1.93v16.01h-1.87v-1.86h-.21c-.13.22-.32.5-.57.83-.25.33-.61.63-1.07.89-.46.26-1.08.39-1.84.39ZM623.36,175.99c1.09,0,1.92-.42,2.5-1.26s.87-1.93.87-3.27-.29-2.4-.85-3.21c-.57-.82-1.41-1.22-2.52-1.22-.76,0-1.39.2-1.9.59-.5.39-.88.93-1.13,1.59-.25.67-.38,1.42-.38,2.25s.13,1.6.38,2.28c.25.68.63,1.23,1.14,1.63.51.41,1.13.61,1.88.61Z"/>
  </g>
  <g>
    <path class="cls-6" d="M192.7,141.35v-47.46h20.45c3.52,0,6.61.7,9.25,2.08,2.64,1.39,4.7,3.35,6.18,5.88,1.48,2.53,2.21,5.48,2.21,8.86s-.75,6.33-2.26,8.81c-1.51,2.47-3.62,4.38-6.34,5.73-2.72,1.35-5.88,2.02-9.49,2.02h-7.13v14.08h-12.87ZM205.56,117.27h4.52c2.27,0,4.05-.59,5.33-1.78,1.28-1.19,1.93-2.78,1.93-4.78s-.64-3.66-1.93-4.79c-1.28-1.13-3.06-1.7-5.33-1.7h-4.52v13.06Z"/>
    <path class="cls-6" d="M235.7,141.35v-35.61h12.42v6.82h.38c.64-2.53,1.66-4.37,3.07-5.52,1.41-1.16,3.06-1.74,4.95-1.74,1.08,0,2.17.17,3.25.51v10.89c-.64-.23-1.42-.4-2.34-.49-.92-.1-1.72-.14-2.37-.14-1.89,0-3.46.62-4.7,1.85-1.24,1.23-1.86,2.87-1.86,4.91v18.54h-12.8Z"/>
    <path class="cls-6" d="M272.26,141.93c-3.42,0-6.21-.85-8.36-2.55s-3.23-4.31-3.23-7.84c0-2.61.58-4.71,1.74-6.31,1.16-1.59,2.72-2.79,4.7-3.58,1.97-.8,4.18-1.28,6.63-1.45,2.97-.21,5.08-.53,6.34-.94,1.25-.41,1.88-1.14,1.88-2.18v-.13c0-.91-.36-1.62-1.08-2.12-.72-.5-1.7-.75-2.93-.75s-2.25.26-3.11.78c-.86.52-1.4,1.32-1.61,2.4l-11.53-1.15c.34-1.99,1.17-3.81,2.48-5.45,1.32-1.64,3.14-2.94,5.46-3.92s5.15-1.47,8.49-1.47,6.31.52,8.81,1.55c2.5,1.03,4.42,2.43,5.78,4.19,1.36,1.76,2.04,3.74,2.04,5.93v24.4h-11.98v-5.03h-.25c-1.08,2-2.49,3.43-4.2,4.3-1.72.87-3.74,1.31-6.05,1.31ZM276.4,133.83c1.44,0,2.75-.44,3.92-1.34,1.17-.89,1.75-2.15,1.75-3.76v-2.93c-1.32.51-3.02.94-5.1,1.27-1.49.23-2.57.68-3.25,1.34-.68.66-1.02,1.44-1.02,2.36,0,1,.34,1.76,1.04,2.28.69.52,1.58.78,2.66.78Z"/>
    <path class="cls-6" d="M318.25,155.43c-4.86,0-8.81-.9-11.83-2.71-3.03-1.8-4.79-4.24-5.3-7.29l11.24-1.66c.19.96.8,1.7,1.83,2.25,1.03.54,2.36.81,4,.81,4.12,0,6.18-1.85,6.18-5.54v-6.05h-.92c-.68,1.81-1.83,3.2-3.44,4.19-1.61.99-3.62,1.48-6.02,1.48-2.53,0-4.85-.59-6.98-1.77-2.12-1.18-3.83-3.04-5.11-5.59-1.29-2.55-1.93-5.87-1.93-9.97,0-4.31.67-7.81,2.02-10.5,1.35-2.69,3.08-4.66,5.21-5.91,2.12-1.25,4.36-1.88,6.72-1.88,2.63,0,4.8.66,6.51,1.98,1.71,1.32,2.91,2.89,3.61,4.71h.25v-6.24h12.68v34.27c0,3.33-.78,6.15-2.34,8.44-1.56,2.29-3.74,4.03-6.55,5.21-2.8,1.18-6.08,1.77-9.84,1.77ZM318.7,131.8c1.76,0,3.15-.73,4.16-2.18,1.01-1.45,1.51-3.47,1.51-6.03s-.5-4.73-1.51-6.23c-1.01-1.5-2.39-2.25-4.16-2.25s-3.1.75-4.08,2.25c-.98,1.5-1.47,3.57-1.47,6.23s.49,4.66,1.47,6.08c.98,1.42,2.34,2.13,4.08,2.13Z"/>
    <path class="cls-6" d="M343.48,141.35v-35.61h11.69l.64,7.29c1.02-2.78,2.46-4.77,4.32-5.96,1.86-1.19,3.87-1.78,6.04-1.78s4.11.65,5.57,1.94c1.46,1.3,2.69,3.51,3.66,6.66,1.13-3.14,2.76-5.36,4.89-6.66,2.13-1.29,4.39-1.94,6.77-1.94,3.4,0,6.16,1.09,8.28,3.28s3.19,5.11,3.19,8.76v24.01h-12.8v-20.77c0-1.55-.39-2.76-1.18-3.65s-1.84-1.32-3.15-1.32-2.36.44-3.12,1.32-1.15,2.1-1.15,3.65v20.77h-12.23v-20.77c0-1.55-.39-2.76-1.18-3.65-.79-.88-1.84-1.32-3.15-1.32s-2.38.44-3.14,1.32-1.13,2.1-1.13,3.65v20.77h-12.8Z"/>
    <path class="cls-6" d="M414.95,141.93c-3.42,0-6.21-.85-8.36-2.55s-3.23-4.31-3.23-7.84c0-2.61.58-4.71,1.74-6.31,1.16-1.59,2.72-2.79,4.7-3.58s4.18-1.28,6.63-1.45c2.97-.21,5.09-.53,6.34-.94,1.25-.41,1.88-1.14,1.88-2.18v-.13c0-.91-.36-1.62-1.08-2.12-.72-.5-1.7-.75-2.93-.75s-2.25.26-3.11.78c-.86.52-1.4,1.32-1.61,2.4l-11.53-1.15c.34-1.99,1.17-3.81,2.48-5.45,1.32-1.64,3.14-2.94,5.46-3.92,2.33-.98,5.15-1.47,8.49-1.47s6.31.52,8.81,1.55c2.49,1.03,4.42,2.43,5.78,4.19,1.36,1.76,2.04,3.74,2.04,5.93v24.4h-11.98v-5.03h-.25c-1.08,2-2.48,3.43-4.2,4.3s-3.74,1.31-6.05,1.31ZM419.09,133.83c1.44,0,2.75-.44,3.92-1.34s1.75-2.15,1.75-3.76v-2.93c-1.32.51-3.02.94-5.1,1.27-1.49.23-2.57.68-3.25,1.34-.68.66-1.02,1.44-1.02,2.36,0,1,.34,1.76,1.04,2.28.69.52,1.58.78,2.66.78Z"/>
    <path class="cls-6" d="M464.77,105.74v9.3h-6.12v14.87c0,1.49.81,2.23,2.42,2.23.38,0,.94-.05,1.67-.14.73-.1,1.22-.19,1.45-.27l1.53,9.14c-1.47.4-2.85.67-4.14.81-1.3.14-2.52.21-3.66.21-8.05,0-12.07-3.6-12.07-10.8v-16.05h-4.52v-9.3h4.52v-8.47h12.8v8.47h6.12Z"/>
    <path class="cls-6" d="M469.99,141.35v-35.61h12.8v35.61h-12.8ZM476.36,102.11c-1.74,0-3.23-.57-4.46-1.72s-1.85-2.53-1.85-4.14.62-3.02,1.85-4.16,2.72-1.7,4.46-1.7,3.23.57,4.46,1.7,1.85,2.52,1.85,4.16-.62,3-1.85,4.14-2.72,1.72-4.46,1.72Z"/>
    <path class="cls-6" d="M524.9,154.67h-12.8v-19.18h-.19c-.72,1.81-1.92,3.31-3.6,4.51s-3.77,1.8-6.27,1.8-4.86-.66-6.99-1.99c-2.13-1.33-3.84-3.34-5.11-6.03-1.27-2.7-1.91-6.1-1.91-10.19,0-4.31.67-7.81,2.01-10.5,1.34-2.69,3.07-4.66,5.19-5.91s4.35-1.88,6.69-1.88c2.65,0,4.81.66,6.48,1.98,1.67,1.32,2.84,2.89,3.52,4.71h.32v-6.24h12.68v48.92ZM506.75,131.99c1.76,0,3.15-.76,4.16-2.28,1.01-1.52,1.51-3.56,1.51-6.13s-.5-4.73-1.51-6.23c-1.01-1.5-2.39-2.25-4.16-2.25s-3.13.75-4.09,2.25c-.97,1.5-1.45,3.57-1.45,6.23s.48,4.69,1.45,6.18c.97,1.49,2.33,2.23,4.09,2.23Z"/>
    <path class="cls-6" d="M543.82,141.8c-2.51,0-4.69-.57-6.56-1.72-1.87-1.15-3.31-2.73-4.33-4.75s-1.53-4.32-1.53-6.91v-22.68h12.8v20c0,1.76.45,3.15,1.34,4.16.89,1.01,2.14,1.51,3.76,1.51s2.82-.5,3.76-1.51c.93-1.01,1.4-2.39,1.4-4.16v-20h12.8v35.61h-12.01l-.22-8.03c-.87,2.42-2.2,4.44-3.98,6.05s-4.19,2.42-7.23,2.42Z"/>
    <path class="cls-6" d="M599.43,106.32v35.03h-12.87v-35.03h12.87Z"/>
    <path class="cls-6" d="M586.6,104.33v-10.38l42.32-.05v10.38h-14.17v37.07h-12.87v-37.07l-15.28.05Z"/>
  </g>
</svg>